<svg xmlns="http://www.w3.org/2000/svg" xmlns:xlink="http://www.w3.org/1999/xlink" viewBox="0 0 164 202.43"><defs><style>.cls-1{fill:url(#linear-gradient);}.cls-2{fill:url(#linear-gradient-2);}.cls-3{fill:#f15000;}.cls-4{fill:#cc141c;}.cls-5{fill:#f38b04;}.cls-6{fill:#545456;}.cls-7{fill:#1880d3;}.cls-8{fill:#353537;}.cls-9{fill:#900f14;}.cls-10{fill:#fff;}.cls-11{fill:url(#linear-gradient-3);}.cls-12{fill:url(#linear-gradient-4);}.cls-13{fill:url(#linear-gradient-5);}.cls-14{fill:url(#linear-gradient-6);}.cls-15{fill:url(#linear-gradient-7);}.cls-16{fill:url(#linear-gradient-8);}.cls-17{fill:url(#linear-gradient-9);}.cls-18{fill:url(#linear-gradient-10);}.cls-19{fill:url(#linear-gradient-11);}</style><linearGradient id="linear-gradient" y1="174" x2="164" y2="174" gradientUnits="userSpaceOnUse"><stop offset="0" stop-color="#f28a00"/><stop offset="1" stop-color="#ff3600"/></linearGradient><linearGradient id="linear-gradient-2" x1="25.57" y1="93.56" x2="159.57" y2="93.56" xlink:href="#linear-gradient"/><linearGradient id="linear-gradient-3" x1="14.43" y1="168.98" x2="14.43" y2="195.2" xlink:href="#linear-gradient"/><linearGradient id="linear-gradient-4" x1="32.31" y1="168.5" x2="32.31" y2="192.63" xlink:href="#linear-gradient"/><linearGradient id="linear-gradient-5" x1="50.29" y1="167.41" x2="50.29" y2="190.76" xlink:href="#linear-gradient"/><linearGradient id="linear-gradient-6" x1="68.29" y1="167.12" x2="68.29" y2="189.4" xlink:href="#linear-gradient"/><linearGradient id="linear-gradient-7" x1="84.51" y1="167.1" x2="84.51" y2="189.14" xlink:href="#linear-gradient"/><linearGradient id="linear-gradient-8" x1="100.22" y1="167.21" x2="100.22" y2="189.58" xlink:href="#linear-gradient"/><linearGradient id="linear-gradient-9" x1="114.39" y1="167.41" x2="114.39" y2="190.88" xlink:href="#linear-gradient"/><linearGradient id="linear-gradient-10" x1="133.03" y1="168.09" x2="133.03" y2="192.8" xlink:href="#linear-gradient"/><linearGradient id="linear-gradient-11" x1="150.91" y1="169.38" x2="150.91" y2="194.64" xlink:href="#linear-gradient"/></defs><g id="Layer_2" data-name="Layer 2"><g id="Layer_1-2" data-name="Layer 1"><path class="cls-1" d="M1.35,173.28,0,172.41V151.79l1.36.9v-7.11H27.59l0,8.41,5.94-.13,5.84-.11q9-.15,18-.24l4,0q4.92,0,9.85-.06h1.07v-2.52l1.36.8v-6.1H99.8v7.87l6.45.05q7.89.08,15.78.21l4,.07q7,.12,14,.29l4,.1q9,.22,17.94.53l2.09.06V171.3l-4.9-.37,0,30.83-2.54-.45c-4-.71-8-1.38-12-2l-.9-.13c-5.91-.87-11.91-1.62-17.83-2.24-1.31-.14-2.63-.27-3.94-.39-5.2-.49-10.49-.89-15.73-1.19l-2.17-.12c-3.31-.17-6.66-.31-10-.4-2.07-.06-4.14-.11-6.22-.13s-3.9,0-5.86,0-4.16,0-6.25,0l-1.37,0c-4,.07-8.06.21-12.11.4l-.91,0c-6,.29-12,.71-17.9,1.25l-3.95.38c-6,.6-12,1.34-17.83,2.18q-2.89.42-5.78.87c-4,.63-8,1.33-12,2.07l-2.55.48Z"/><path class="cls-2" d="M155.32,4.41A211.54,211.54,0,0,1,109.6,43.34,2.45,2.45,0,0,0,108.49,45L107.91,48c-3.31-.69-6.64-1.44-10.08-2h0a93.43,93.43,0,0,0-12-1.53c-4.85-4-8.61-6.27-13.57-7-.55-.08-2-.18-2-.18s-.39,1.06-.62,1.53a32.27,32.27,0,0,0-9.4-3.41c-.6-.11-2.14-.3-2.14-.3s-.42,1.34-.61,1.9A64,64,0,0,0,41.2,29.73c-1.38-.4-7.44-1.33-7.44-1.33S38,33.2,39,34A100.13,100.13,0,0,1,53.1,48.42,100.05,100.05,0,0,0,26.6,60.67l-1,.76s0,.85,0,1.21v43.25l0,2.47a2.56,2.56,0,0,0,0,.39v47.46c0,.27,0,.74,0,.74l.35.57a64.06,64.06,0,0,0,108,0c.11-.18.33-.57.33-.57s0-.49,0-.74V89l.68-.78c.25-.29.93-1,.93-1s-.32-.83-.44-1.25a83.34,83.34,0,0,0,10.8-12.23c.34-.47,1-1.53,1-1.53l-1-1.35A73.74,73.74,0,0,0,152.07,58c.2-.6.55-1.54.55-1.54s-1-.78-1.17-1A53,53,0,0,0,155,44.54l.25-1.42s-.87-.74-1.2-1a51.44,51.44,0,0,0,3.36-11c.11-.64.37-2.11.37-2.11l-2-.62a70.08,70.08,0,0,0,2.39-11.39c0-.38.1-1.16.1-1.16l-.78-.78c.84-3,1.58-5.95,2.06-8.65,0-1-.06-6.47-.06-6.47S156.32,3.32,155.32,4.41Z"/><path class="cls-3" d="M90.4,129.17c15.5,10.89,14.94,24.14,11.92,31.13C102.81,147.08,97,137.82,90.4,129.17Zm.72-8c6.45,10.1,34.05,3.22,25.71,37.06C117.75,128.53,92.72,132.62,91.12,121.13Zm60-102.9c-10.08,10.49-31.42,26.05-38.33,29,.18,11.07-14.54,40.25-26.59,43.32.07.15-11.21,11.93-14.52,13.36,3.35-5.31,9.2-14.35,9.2-14.35a41.32,41.32,0,0,0,12-5.68,6.13,6.13,0,0,0-4-2.84c1.34-.76,4.5-.41,4.5-.41-1.78-1-8-7.33-11.73-6.82a13.51,13.51,0,0,1,2.85,4.69l-2.7-1.9c.53.52,3.71,7.23,3.61,9.14-2.55-4.67-5.36-8.87-8.52-11.49a7.43,7.43,0,0,1,2.82.15c-.71-1.24-2.32-2.25-4.1-3.39-2,1.44-3.6,2.89-6.43,3.43,3.3-2.06,10.46-8.64,12.43-10.44-2.39,1-4.39,1.59-4.39,1.59a44.91,44.91,0,0,1-9.7,6.62,46.85,46.85,0,0,0,4.77-3.81c-1.8.43-3.65.95-5.36,1.18A91.08,91.08,0,0,0,81.06,58.07a65.78,65.78,0,0,1-3.63,5.8,30,30,0,0,0,9-12.2c-5.85,5.66-8.56,8.26-12.49,11-2.72,1.9-6,3-10.35,6.24a20,20,0,0,1,3.9-3.72c1.91-2.74,5.71-8.75,1.4-10.87a2.48,2.48,0,0,1,2.63,2,6.84,6.84,0,0,0,.31-1.52,2.72,2.72,0,0,0-.37-.39c-3.42-3-6.55,1.78-6.53,3.17,0,0,1.7-1.94,3-1.57.63.18,1.81.2,1.34,2.77-.77,4.17-7.08,10.05-7.08,10.05a2.6,2.6,0,0,1-.36,1.44,4.85,4.85,0,0,0-.52-2.36c-1.1,4.14-3.94,4.7-3.42,8.94.1.81,1.72.19,1.72.19-.75,0-1.07,0-1.14-.72.58.29.86.32,1.28,0-1.06-.45-.79-1-.67-1.43,0,0-.05.69.62.58s.47-2.3,1.93-3.54a3.2,3.2,0,0,1,3.52-.7,4.33,4.33,0,0,0-1.65.25,5.24,5.24,0,0,1-.67,3.38A5.65,5.65,0,0,0,62.54,72a6,6,0,0,0-1.93,3.45,3,3,0,0,0,1.53-.17,5.47,5.47,0,0,1-1.74,1.18c.31.39,2.05.05,3.41.74l-1.22.51c.36.06,1.36.33,1.94.48a1.84,1.84,0,0,0-1,1c4.56.7,7.76,1.73,10.59,6.34-1.89-1.63-3.76-3-5.58-3.43A6.53,6.53,0,0,1,69.28,86c-1.75-4.44-4.39-4.74-4.39-4.74,2.39,4.48,3.93,9,3.74,12.87,1.58-1.88,2-5,2.08-8.13,2.09,5.66,3.26,12.51.15,16.61a28.61,28.61,0,0,0,0-8.27C69,98.18,67.24,98.9,67.24,98.9a10.36,10.36,0,0,0-.09-3.66,21.39,21.39,0,0,0-2.5,9.12c-1-.9-.87-5.54.22-7.88-8.17,6.44-6.11,19.67,8.17,28.27a6.91,6.91,0,0,1-.8-5.62C79.3,129.69,91,130.7,96.16,146.77c5,15.57-12.91,31.29-12.91,31.29,2,0,4-.17,5.91-.39a74.46,74.46,0,0,0,9.37-15.33c.43,5.1-3,12-4.39,14.49a46.35,46.35,0,0,0,5.12-1.43c2.31-2.35,11.23-12.66,9.38-29.77a36.38,36.38,0,0,1-1.06,26c1.13-.64,2.26-1.34,3.4-2.09a31.12,31.12,0,0,0,3.45-10.68c.76,2.91-.12,7-.54,8.65,1-.71,1.93-1.45,2.91-2.24,2.15-2.95,6.37-10.85,3.75-25.13,4.75,7.19,4.21,15,3.59,18.65.9-.85,1.8-1.74,2.72-2.66,1-14.21-5.86-25.81-11.77-34.13-6.62-6.06-12.59-9.34-19.08-10.87,9,5.45,14.35,11.49,16.82,17.49-10.27-8.29-20.44-17.6-33.36-18.2l-1.1,3.23c-3.15-4.77.55-13.59,4.08-15.57,16.77-1.79,29.08-22.48,36.17-47.19C124.4,47.63,142.4,35.63,151.08,18.23Z"/><path class="cls-3" d="M107,108a6.7,6.7,0,0,1-2.17.78,30.78,30.78,0,0,1,5.75,4.32,49.44,49.44,0,0,0-8-4c-1.11.09-2.32.14-3.56.16,13,5.18,19,11.1,19,11.1A36.76,36.76,0,0,0,107,108Zm-11.76-4.42a19.76,19.76,0,0,1-6.92,2.29c10.6,4.59,18.34-.38,18.34-.38S100.07,106,95.25,103.59Zm-6.86-5a11.55,11.55,0,0,0,2.66,2.09,31.36,31.36,0,0,1-8.21.47A16.31,16.31,0,0,0,95.77,101,21,21,0,0,1,88.39,98.62Zm29-.33s-7.13,1.09-12.44.18a20,20,0,0,1-6.31,3.66A23.41,23.41,0,0,0,117.4,98.29Zm-22-2.69A9.82,9.82,0,0,0,99,97.46a45.61,45.61,0,0,1-7.4,1.71c4.74.91,9.84.14,13-2.74A24.31,24.31,0,0,1,95.38,95.6Zm5.16-4.79a10.2,10.2,0,0,0,3.58,1.91,47.56,47.56,0,0,1-6.7,2c5.26.56,11.14-.5,14.38-3.61A36,36,0,0,1,100.54,90.81Zm25.29-1.27s-6.94,3.32-13.36,2.76A19.68,19.68,0,0,1,106,96C117.44,98.94,125.83,89.54,125.83,89.54Zm-7.18-6.14a38.52,38.52,0,0,1-12.52,1.35,11.23,11.23,0,0,0,4.5,1.68,51.54,51.54,0,0,1-7.41,3.64C109,89.94,115.65,87.51,118.65,83.4Zm15.68-3.88S126.86,84.11,119.5,85a21,21,0,0,1-5,5.16C126.61,90.71,134.33,79.52,134.33,79.52ZM98,73a13.35,13.35,0,0,0-4.43.64c4.3.3,4.69,1,4.69,1a4.75,4.75,0,0,0-2.79,2.88,10.36,10.36,0,0,1,3.37-1.86c.34-.59,1.07-1.85,1.36-2.42A14.18,14.18,0,0,0,98,73Zm27.79-.48c-2.39,1.41-8.59,4.87-13.39,5.22a10.81,10.81,0,0,0,4.8.3,23.82,23.82,0,0,1-7.93,5.38C119,82.15,122.76,76.65,125.75,72.54Zm16-6.47a31.52,31.52,0,0,1-14.06,7.32,30.24,30.24,0,0,1-6.44,8.7C133.32,81.7,141.73,66.07,141.73,66.07Zm-13-2.66c-2.84,1.62-9.94,5.28-13.4,6.09a19.76,19.76,0,0,0,5.74-.38,36.72,36.72,0,0,1-7.19,6.3A28.33,28.33,0,0,0,128.73,63.41Zm2.65-8.86c-2.83,1.62-9.21,5.5-12.66,6.31a7.35,7.35,0,0,0,4.31-.07s-1.16,2.44-5.33,5.85A28.86,28.86,0,0,0,131.38,54.55Zm13.93-1.29a54.61,54.61,0,0,1-14.93,11,30.77,30.77,0,0,1-2.78,6.37C139.36,68.18,145.31,53.26,145.31,53.26Zm-12.82-6.77c-2.57,1.69-7.6,5.47-10.79,6.41a5.56,5.56,0,0,0,3.78-.33,27.54,27.54,0,0,1-5,5.68A25.83,25.83,0,0,0,132.49,46.49Zm16.17-6.8s-7.37,9.55-15.45,14.08c-.22,2.57-.76,3.5-2.15,6.65C146.36,53.52,148.66,39.69,148.66,39.69Zm2.05-14.55a79.82,79.82,0,0,1-14.8,16.16,27,27,0,0,1-2.34,8.55C146.77,40.57,149.27,29.9,150.71,25.14Z"/><path class="cls-4" d="M95.26,103.59a19.84,19.84,0,0,1-6.93,2.29A23.53,23.53,0,0,0,94,107.56q2.68-1.26,5.17-2.63A16.67,16.67,0,0,1,95.26,103.59Zm9.7-5.12a20,20,0,0,1-6.31,3.66,26,26,0,0,0,4.47.51c2-1.23,3.86-2.5,5.63-3.83A27.38,27.38,0,0,1,105,98.47Zm11.48-6.26a18.8,18.8,0,0,1-4,.09A19.68,19.68,0,0,1,106,96a18.13,18.13,0,0,0,5.67.51C113.34,95.15,114.94,93.71,116.44,92.21Zm6.87-8a27.59,27.59,0,0,1-3.81.75,21,21,0,0,1-5,5.16,19,19,0,0,0,4.24-.28A65.34,65.34,0,0,0,123.31,84.24Zm6.77-11.48a23,23,0,0,1-2.41.63,30.24,30.24,0,0,1-6.44,8.7,14.83,14.83,0,0,0,4.06-.7A69.31,69.31,0,0,0,130.08,72.76Zm4-10.48a40.06,40.06,0,0,1-3.67,2,30.77,30.77,0,0,1-2.78,6.37,16.63,16.63,0,0,0,4-1.39C132.53,67,133.34,64.64,134.05,62.28Zm2.5-10.67a34.47,34.47,0,0,1-3.34,2.16c-.22,2.57-.76,3.5-2.15,6.65a33.64,33.64,0,0,0,4.1-2.19C135.69,56.06,136.16,53.85,136.55,51.61ZM138,39.55c-.68.59-1.37,1.18-2.08,1.75a27,27,0,0,1-2.34,8.55c1.34-.94,2.56-1.89,3.68-2.85C137.57,44.55,137.81,42.06,138,39.55Z"/><path class="cls-4" d="M88.39,98.62a11.55,11.55,0,0,0,2.66,2.09,31.36,31.36,0,0,1-8.21.47,15.76,15.76,0,0,0,3.07.95,56.49,56.49,0,0,0,6.63-1.81A20.45,20.45,0,0,1,88.39,98.62Zm7-3A9.82,9.82,0,0,0,99,97.46a45.61,45.61,0,0,1-7.4,1.71,20.81,20.81,0,0,0,3.14.35,40.22,40.22,0,0,0,6-3A30.37,30.37,0,0,1,95.38,95.6Zm5.16-4.79a10.2,10.2,0,0,0,3.58,1.91,47.56,47.56,0,0,1-6.7,2,24.83,24.83,0,0,0,6.15-.1,39.46,39.46,0,0,0,3.76-3.17A49,49,0,0,1,100.54,90.81Zm12.6-6.29a55.46,55.46,0,0,1-7,.23,11.23,11.23,0,0,0,4.5,1.68,51.54,51.54,0,0,1-7.41,3.64,25.39,25.39,0,0,0,6.38-1A46.64,46.64,0,0,0,113.14,84.52Zm3.72-6.15a24.49,24.49,0,0,1-7.63,5.07,23.68,23.68,0,0,0,5.5-1.35Q115.82,80.32,116.86,78.37Zm1-2a20.73,20.73,0,0,1-5.5,1.35,10.67,10.67,0,0,0,4.65.32C117.3,77.53,117.58,77,117.86,76.41ZM121,69.19a36.51,36.51,0,0,1-7.12,6.23,29.25,29.25,0,0,0,5.7-2.75C120.06,71.55,120.54,70.39,121,69.19Zm.84-2.23a38.3,38.3,0,0,1-6.51,2.54,18.94,18.94,0,0,0,5.7-.38C121.3,68.42,121.57,67.69,121.84,67Zm2.78-8.6a29.19,29.19,0,0,1-5.9,2.5,7.35,7.35,0,0,0,4.31-.07s-1.16,2.44-5.33,5.85A26.91,26.91,0,0,0,123,63.77Q123.81,61.18,124.62,58.36Zm2.12-8a22.81,22.81,0,0,1-5,2.56,5.56,5.56,0,0,0,3.78-.33,27.54,27.54,0,0,1-5,5.68,25.81,25.81,0,0,0,5-3.14C125.94,53.57,126.34,52,126.74,50.34Z"/><path class="cls-3" d="M83.34,50.47c-5,5-8.73,7.78-9.91,8.15-.13,1.12-.34,2-.34,2s5.34-3.23,7.24-5.85l-.4,2C81.25,55.72,82.65,53,83.34,50.47Z"/><path class="cls-3" d="M72.33,55.58a5,5,0,0,1-.59,1.86A14.21,14.21,0,0,1,71,62.62l.51-.41S73.42,58.2,72.33,55.58Z"/><path class="cls-4" d="M63.28,55.78A70.73,70.73,0,0,0,34,66.46v71.2c1,4.13,2.21,8.25,6,12.19,1.48-3.79,2.75-13.5,15.67-13.92C50.58,138.48,45.59,146.33,58,161c0-3.18-.29-13.24,6.38-14.13,0,0-2.73,8.07,6.59,10.86,8.88,2.66,18.13-1.73,20.5-4s2.16-8-2.58-13.77-13.73-14.07-13.73-14.07c.44,2.57,1.37,3.47,2.28,5.18-16.68-7.3-28.86-27.6-11.47-39.41a24.55,24.55,0,0,0-2.24-7,20.33,20.33,0,0,0-2.38-2.83,7.61,7.61,0,0,1-2.52.85,6.19,6.19,0,0,0-1.42,6.34c-6.47-3-3.38-9.36-1.18-13.22.2-3.34,2.46-6.1,3.69-9.15a4.35,4.35,0,0,0-.07-2.07,5.61,5.61,0,0,1,2.87,1.54c1-.82,5.76-6.55,4.36-6.79s-3.86,3.43-3.86,3.43C62.49,62.09,61.82,58,63.28,55.78Z"/><path class="cls-3" d="M89.87,57.88c-.92,0-1.85,0-2.79.06,5.92.9,6.54,2.36,6.54,2.36a6.74,6.74,0,0,0-3.09,2.4,33.59,33.59,0,0,1,10.57-2.17A21.78,21.78,0,0,0,89.87,57.88Z"/><path class="cls-3" d="M101.9,62.84a21.2,21.2,0,0,0-2.46.17c3.36.57,4,1.83,4,1.83s-1.42,1.14-1.4,2a4.55,4.55,0,0,1,2.32-1.25c.42-.55,1-1.79,1.37-2.33A13.71,13.71,0,0,0,101.9,62.84Z"/><path class="cls-5" d="M88.39,98.62a11.55,11.55,0,0,0,2.66,2.09,25.46,25.46,0,0,0,4.72.31A21,21,0,0,1,88.39,98.62Zm7-3A9.82,9.82,0,0,0,99,97.46h0c1.15-.06,3.59.22,5.62-1A24.31,24.31,0,0,1,95.38,95.6Zm5.16-4.79a10.2,10.2,0,0,0,3.58,1.91h0a17.82,17.82,0,0,0,7.69-1.63A36.07,36.07,0,0,1,100.54,90.81Zm18.11-7.41a38.52,38.52,0,0,1-12.52,1.35,11.23,11.23,0,0,0,4.5,1.68C112.92,85.92,116.69,85.07,118.65,83.4Zm7.1-10.86c-2.39,1.41-8.59,4.87-13.39,5.22a10.81,10.81,0,0,0,4.8.3h0C119.81,76.78,122.74,75.57,125.75,72.54Zm3-9.13c-2.84,1.62-9.94,5.28-13.4,6.09a19.72,19.72,0,0,0,5.73-.38h0A41.27,41.27,0,0,0,128.73,63.41Zm2.65-8.86c-2.83,1.62-9.21,5.5-12.66,6.31a6.5,6.5,0,0,0,3,.22l1.27-.29A25.85,25.85,0,0,0,131.38,54.55Zm1.11-8.06c-2.57,1.69-7.6,5.47-10.79,6.41a5.57,5.57,0,0,0,3.78-.33A23.55,23.55,0,0,0,132.49,46.49Z"/><path class="cls-3" d="M78.64,68.35a8,8,0,0,0-1,1.12,20.08,20.08,0,0,1,4.27,1.76,8.86,8.86,0,0,0-2.43.22l.68.8a21.55,21.55,0,0,1,5,.25A19.53,19.53,0,0,0,78.64,68.35Z"/><path class="cls-6" d="M56.28,79.55a2.3,2.3,0,0,0,.13.85c.15.29,0,.53-.36.3S56.28,79.55,56.28,79.55Zm1.24-2.5a8,8,0,0,0-2,8c.75-2.94,2.71-5.37,6.47-7.49a7.7,7.7,0,0,0-4.57.9A2.63,2.63,0,0,0,57.52,77.05Z"/><path class="cls-6" d="M63,78.33l-1.69.09A12.82,12.82,0,0,0,58.11,81C60.55,81,63,78.33,63,78.33Z"/><path class="cls-3" d="M47.57,140.44c-4.38,5.91-6.8,14.18-4.14,25.19,2.36,1.47,4.57,2.76,6.64,3.91-1.07-1.9-3.11-6.65-3.71-16.13,7.52,15.78,15.7,21.44,17.82,22.71A36.73,36.73,0,0,0,79,178.48l1.22-1C60.28,172.73,46.67,154.88,47.57,140.44Z"/><path class="cls-3" d="M34,144.1v12.5l3.44,4a33.67,33.67,0,0,1-2-9.85,27.89,27.89,0,0,0,3.92,7.6,37.4,37.4,0,0,1,.59-6.16C36.48,148.78,35.55,146.59,34,144.1Z"/><path class="cls-3" d="M62.36,149.31c-8.39,10.84,3.18,24.41,20.93,25.58a35.94,35.94,0,0,0,2.84-3.39c-2.06-.14-15.47-1.28-20.93-8.46,15.79,6.26,24.07,1.31,25.55.27.74-1.65,1.4-3.31,2.07-5C70.52,168.58,59.75,156.24,62.36,149.31Z"/><path class="cls-3" d="M58.47,173.81c1.5.68,2.9,1.26,4.21,1.76Z"/><path class="cls-5" d="M95.26,103.59c-.94.47-1.74.83-2.46,1.12,9,3.16,13.87.79,13.87.79S100.07,106,95.26,103.59Zm22.14-5.3s-7.13,1.09-12.44.18a27.17,27.17,0,0,1-2.54,1.83C112.52,101.87,117.4,98.29,117.4,98.29Zm8.43-8.75s-6.94,3.32-13.36,2.76a14.3,14.3,0,0,1-2.66,2C120.11,96,125.82,89.54,125.83,89.54Zm8.5-10S126.86,84.11,119.5,85a17.88,17.88,0,0,1-2.28,2.79C121.76,87.79,129.5,86.06,134.33,79.52Zm7.4-13.45a31.55,31.55,0,0,1-14.06,7.32,37.62,37.62,0,0,1-2.88,4.7C130.41,75.89,136.88,72.63,141.73,66.07Zm3.58-12.81a54.77,54.77,0,0,1-14.93,11c-.3.94-.63,1.84-1,2.67A35.44,35.44,0,0,0,145.31,53.26Zm3.35-13.57s-7.37,9.55-15.45,14.08a11.54,11.54,0,0,1-.72,3.33C139.26,52.32,144.89,48.7,148.66,39.69Zm2-14.55A79.48,79.48,0,0,1,135.91,41.3a23.39,23.39,0,0,1-.59,3.51A61.6,61.6,0,0,0,150.7,25.14Z"/><path class="cls-4" d="M69.28,86l.78-2.31,4,1.87c-1.88-1.63-3.76-3-5.58-3.43A6.53,6.53,0,0,1,69.28,86Zm-4.39-4.74c2.39,4.48,3.94,9,3.74,12.87A15.93,15.93,0,0,0,69.28,86C67.53,81.51,64.89,81.21,64.89,81.21Zm23.86-.14.45.09-.19,0Zm-12.9-.28c2.26,2.67,3.48,4.38,4,8l-8.24,15.15c3.35-5.31,9.2-14.35,9.2-14.35a41.32,41.32,0,0,0,12-5.68,6.41,6.41,0,0,0-.73-1,28.45,28.45,0,0,1-7,4.2,34.65,34.65,0,0,0-4.26-3.21A7.76,7.76,0,0,1,82,86.11C80,84.31,78.49,82.38,75.85,80.79Zm6-7h0a2.19,2.19,0,0,0-.36,0,13.51,13.51,0,0,1,2.85,4.69l-2.7-1.9a1,1,0,0,1,.13.17c.1.16.24.4.41.71l.26.5c.1.18.19.38.29.59s.21.42.31.65h0c.11.23.22.46.32.7s.22.48.32.73l.17.39.15.36c.1.25.2.5.29.75h0c.1.24.19.49.28.73s.05.17.08.25.11.3.16.45l.15.52,0,.13h0a7.44,7.44,0,0,1,.19.79s0,0,0,.06h0a1,1,0,0,1,0,.24,2,2,0,0,1,0,.41,8,8,0,0,0-.75-6,11.07,11.07,0,0,1,2.72,2.55,11.63,11.63,0,0,0-1.67-4.55c1.68.55,3.36,3,3.17,3.28,1.34-.76,4.5-.41,4.5-.41l-.17-.11L93,80.47l-.07,0-.21-.16-.26-.19-.26-.2-.31-.25-.27-.22-.29-.23-.36-.29-1.1-.9-.32-.25L89,77.37l-.33-.26-.46-.34-.39-.28-.46-.33-.66-.45-.18-.11-.22-.14-.21-.13-.21-.13-.22-.13L85.49,75l-.22-.12-.2-.11-.24-.11-.18-.09-.25-.11-.16-.08-.26-.1-.16-.06-.25-.08-.15,0L83.16,74l-.15,0-.21,0-.18,0-.21,0-.16,0A2.32,2.32,0,0,0,81.88,73.81Zm0-2.58a8.86,8.86,0,0,0-2.43.22l.68.8a21.55,21.55,0,0,1,5,.25Zm-17.68-.1a2.9,2.9,0,0,0-.43,0c-.55.11-.84,0-.83.21a.66.66,0,0,0,.1.31l0,1.84a3.92,3.92,0,0,1-.91,1.76l-1.91.81-.12.67s.56.67.93.55a23.88,23.88,0,0,1,2.76-.11c-.23-.43-.79-.69-2.12-.83a3.23,3.23,0,0,0,2.45-.85,12.88,12.88,0,0,1-1.63.06A4.22,4.22,0,0,0,64,71.71a6.57,6.57,0,0,1,1.1-.49A5.07,5.07,0,0,0,64.24,71.13ZM75.48,71c-2,1.44-3.6,2.89-6.43,3.43,3.2-.28,7.83,1.33,7.83,1.33a8,8,0,0,0-2.19-2.35,6.45,6.45,0,0,1,4.89,1,4.36,4.36,0,0,0-.69-.89l-.22-.21a2.39,2.39,0,0,0-.23-.22,12,12,0,0,0-1.07-.82c-.07-.06-.16-.11-.24-.17C76.62,71.77,76.06,71.41,75.48,71ZM63,67.3A6.44,6.44,0,0,0,62,68l-.17,2.26A3.3,3.3,0,0,0,63,67.31,0,0,0,0,0,63,67.3Zm29.74-1.63h-.82l-.9,0c.27.05.53.1.77.16l.69.16c3,.78,3.36,1.7,3.36,1.7s-.26.2-.63.55l0,0c-.12.11-.25.22-.38.35l-.15.15c-.27.27-.58.57-.88.91h0l-.48.56-.07.08c-.06.09-.13.17-.2.26l-.14.18a2.43,2.43,0,0,1-.14.2,21.5,21.5,0,0,1,8-2.71l-1-.58c-.32-.18-.62-.36-.92-.51L98.38,67l-.44-.21-.44-.19-.44-.18-.45-.16-.47-.13a4.21,4.21,0,0,0-.48-.12l-.52-.1-.54-.08h0a5.23,5.23,0,0,0-.57-.06h0l-.61,0h0l-.67,0Z"/><path class="cls-5" d="M71.64,103.94C77.06,101.51,82,96.2,86.83,91.36c14.17-3.24,23-21.59,28.12-42.9,9.45-3.85,24-15.93,28.66-21.06a109.74,109.74,0,0,1,7.47-9.17l-4.63,3.48L117.57,43.3l-6,3.72-5.1,17.25L98.54,79.11l-8.43,8.35-5.58,2.66Z"/><path class="cls-4" d="M99.67,153.08c-.17,3.38-.18,7-1.14,9.26.43,5.1-3,12-4.39,14.49a45.75,45.75,0,0,0,5.12-1.43C100.62,170.64,101.69,164.75,99.67,153.08Zm-37.31-3.77c-8.39,10.84,3.18,24.41,20.93,25.58a35.94,35.94,0,0,0,2.84-3.39c-2.06-.14-15.47-1.28-20.93-8.46C58.88,157.21,62.36,149.31,62.36,149.31Zm46.28-3.68a36.38,36.38,0,0,1-1.06,26c1.13-.64,2.26-1.34,3.4-2.09a31.12,31.12,0,0,0,3.45-10.68c.76,2.91-.11,7-.54,8.65.73-.54,1.47-1.1,2.22-1.69.33-3.58.19-6.44-2-11.44-.48,3.15-1.19,6.42-2.56,8.67C112.27,158.71,112.57,154,108.64,145.63ZM34,144.1v12.5l3.44,4a33.67,33.67,0,0,1-2-9.85Zm68.52-.34a22.29,22.29,0,0,1-.22,16.54,45.05,45.05,0,0,1-.28,7.09C104.47,157.9,106.38,151.25,102.54,143.76Zm-55-3.32c-4.38,5.91-6.8,14.18-4.14,25.19,2.36,1.47,4.57,2.76,6.64,3.91-1.07-1.9-3.11-6.65-3.71-16.13C45.7,147.39,47.57,140.44,47.57,140.44Zm73-.32c.44,8.54-.82,15.89-4.06,25.38l.31-.25C119,162.3,123.17,154.4,120.55,140.12Zm0,0c4.76,7.19,4.21,15,3.59,18.65l1.35-1.3C126.21,151,123,142.8,120.55,140.12ZM93.65,125.8c2.15,3.47,5.65,8,10.32,10.69,8.25,4.68,8.76,16.07,8.76,16.07,1-6.9-.57-8.72-3.25-15,4,4.86,7.33,14.69,7.36,20.67C117.6,133.47,100.34,132.2,93.65,125.8Zm-2.53-4.67a2.19,2.19,0,0,0,.09.5Zm4.89-10c9,5.45,14.35,11.49,16.82,17.49,2.85,3,6,6,7.52,9.78.18-3.15-1.47-5.66-2.07-7,7,9.73,8.48,17.75,8.68,21.83,0-12.88-6.37-23.46-11.87-31.2C108.47,115.92,102.5,112.64,96,111.11Zm-16.54-.71-1.1,3.23a9.48,9.48,0,0,0,5.28,3.4,9,9,0,0,1-2.35-4,51,51,0,0,1,22.83,11.16l-5.76-6.75C92.57,113.56,86.42,110.72,79.47,110.4Zm23.15-1.29c-1.11.09-2.32.14-3.56.16,13,5.18,19,11.1,19,11.1a28,28,0,0,0-7.52-7.26A49.44,49.44,0,0,0,102.62,109.11Z"/><path class="cls-5" d="M92.75,158.37C82.72,163,75,163,69.85,161c6.86,4.12,13.46,2.73,22.06-.38l.87-2.15Zm-42.83-5.66c2.44,10.2,11.57,19.91,24.78,25.71,1.89.12,3.24,0,4.25.06l1.22-1C65.71,174,54.58,163.66,49.92,152.71Zm-14.14-5.65a52.75,52.75,0,0,0,3.65,9.23,39.64,39.64,0,0,1,.51-4.09A26.63,26.63,0,0,1,35.78,147.06Zm58.5-5a35.18,35.18,0,0,1,1.88,4.67c5,15.57-12.91,31.29-12.91,31.29,2,0,4-.17,5.91-.39C93,170,102.77,155.2,94.28,142.1ZM107,108a5,5,0,0,1-.77.38,88,88,0,0,1,7.66,5.89A43.22,43.22,0,0,0,107,108Z"/><path class="cls-4" d="M93.62,60.3a6.74,6.74,0,0,0-3.09,2.4l.79-.3a34.6,34.6,0,0,1,9.78-1.87ZM72.33,55.58a5,5,0,0,1-.59,1.86A14,14,0,0,1,71,62.62l.51-.41S73.42,58.2,72.33,55.58Zm-2.51-1.41a2.91,2.91,0,0,0-.92.15,2.48,2.48,0,0,1,2.63,2,7.49,7.49,0,0,0,.32-1.52h0A4.64,4.64,0,0,0,69.82,54.17Z"/><path class="cls-4" d="M98.06,74.6c-1,0-4.17,1.63-3.12,3.46s3.9-1.51,3.9-1.51L99.43,75l-1.21-.43A.4.4,0,0,0,98.06,74.6Zm7-10-1.56.24s-1.42,1.14-1.4,2a4.55,4.55,0,0,1,2.32-1.25A11.07,11.07,0,0,0,105.05,64.6Z"/><path class="cls-3" d="M92.74,65.67c-.53,0-1.1,0-1.72,0,4.37.82,4.82,2,4.82,2l4.92.57C97.91,66.66,96.42,65.72,92.74,65.67Z"/><path class="cls-5" d="M98,73a13.35,13.35,0,0,0-4.43.64l.72.06.24,0h0l.35,0h0l.38,0,.13,0h0l.44.06a15,15,0,0,1,3.92.08c.16-.3.32-.58.41-.77A14.07,14.07,0,0,0,98,73Zm-5.22-7.35c-.53,0-1.1,0-1.72,0a13.84,13.84,0,0,1,3.71,1.13,14.51,14.51,0,0,1,2.09.07,14.49,14.49,0,0,1,3.94,1.39C97.91,66.66,96.42,65.72,92.74,65.67Zm9.16-2.83a21.2,21.2,0,0,0-2.46.17l.64.13.15,0,.45.11.1,0,.43.13.06,0,.43.16a8.21,8.21,0,0,1,3.9,0h0l.19-.3a13.82,13.82,0,0,0-3.89-.47Zm-12-5c-.92,0-1.85,0-2.79.06.33.05.64.1.93.16h0l.17,0,.75.15h0l.21,0h0l.16,0,.13,0,.69.18.1,0h0l.7.21h0a75,75,0,0,1,8,.65h0l-.74-.28-.06,0-.78-.25-.52-.15h-.07l-.5-.13h-.06l-.75-.17h0l-.76-.14h0l-.18,0h0l-.39-.06H94l-.18,0h0l-.36-.05h0l-.29,0h0l-.43,0-.52,0-.26,0h0l-.4,0h0l-.28,0h-.29Z"/><path class="cls-7" d="M62.54,72a6,6,0,0,0-1.93,3.45c0,.07.44.06.88,0a3.69,3.69,0,0,0,1.37-2.06A3.56,3.56,0,0,0,62.54,72Z"/><path class="cls-8" d="M62.16,78.1l-.87.05a26.75,26.75,0,0,0-2.7,2.13,15.32,15.32,0,0,0-.93,1.4L59.81,81a1.08,1.08,0,0,1,0-1c3.46-3.13,1.89,1,3.77-1.88,0,0-1,0-1.5,0Zm-.34-1a28,28,0,0,0-3.26.5c-.09.05-1.16.85-1.16.85a14.85,14.85,0,0,1,3-.56c.46.12.41.39.41.39l1.72-.86A1.58,1.58,0,0,0,61.82,77.13Z"/><path class="cls-5" d="M61,67.48a.14.14,0,0,0-.09,0c-.24.07-1.66,2.94-2.42,3.94A14.42,14.42,0,0,0,57,76a3.9,3.9,0,0,0,.93,1.42l2.41-.13-.82-.58a3.08,3.08,0,0,1-.79,0,3.58,3.58,0,0,0-.24-.34c-.89-3.31,3.2-4.28,2.84-8.41C61.29,67.87,61.22,67.51,61,67.48Zm19.44-.3h-.1a2,2,0,0,0-1.74,1.16c2,2,5.31,3.23,6.53,4.15,0,0,1.79-4.22,1.23-4.52A41.92,41.92,0,0,0,80.48,67.18Zm-6.87-.82c-.24-.06-6.81,3.25-6.81,3.25l-1.11,1.17a15,15,0,0,0,6.47-2.35S73.85,66.42,73.61,66.36ZM81.48,64s-5.74,1-6,1.09-.65,1.18-1.18,1.53-4.77,4.12-6.93,5.59a24.89,24.89,0,0,0,9.47-5.35A18.31,18.31,0,0,0,81.48,64ZM66.83,52.2c-.9,0-1.62.25-1.8,1a17.76,17.76,0,0,0-.72,3.91c.06.44-.21,1.47.72,1.24s1.43-1.52,1.43-1.52c.34-2.49,1.89-3.51,5.24-3.29A15.57,15.57,0,0,0,66.83,52.2Zm18.63-.67a.94.94,0,0,0-.39.06c-.41.17-2.72,3.9-6.91,7s-7.8,5.67-7.8,5.67L63.6,68.91s8.53-4.68,11.13-5.86,6.33-5,6.33-5c1.54-1.36,4.43-3.94,5.38-6.4A4.06,4.06,0,0,0,85.46,51.53Zm-4.85-1.62a.65.65,0,0,0-.26,0c-.48.18-6.56,7.09-6.56,7.09l-.7,3.64A47.27,47.27,0,0,0,83.34,50.47,16.41,16.41,0,0,0,80.61,49.91Z"/><path class="cls-5" d="M64.87,96.48c-8.16,6.44-6.11,19.67,8.17,28.27a6.91,6.91,0,0,1-.8-5.62,18.58,18.58,0,0,1-6.83-8.65,14,14,0,0,0,3.06,9C63.43,114.94,59.14,104.6,64.87,96.48Zm6-2.19C69,98.18,67.24,98.9,67.24,98.9a10.58,10.58,0,0,0-.08-3.66,21.25,21.25,0,0,0-2.51,9.12,35.07,35.07,0,0,1,2.19-6.84,27.12,27.12,0,0,1-.22,4.3,8.52,8.52,0,0,0,3.46-4.17c.16,1.34.49,2.43.78,4.91A28.61,28.61,0,0,0,70.88,94.29Z"/><path class="cls-9" d="M94.28,142.1a33.42,33.42,0,0,1,1.51,3.59C95.8,144.16,95.5,142.79,94.28,142.1Zm-38.53-6.17c-7.17.3-11.22-.16-17.17,8.22-2.52-1.76-3.14-3.5-4.56-6.49,1,4.13,2.21,8.25,6,12.19C41.55,146.06,42.82,136.35,55.75,135.93Zm0,0C50.58,138.48,45.59,146.33,58,161c0-3.18-.29-13.24,6.38-14.13-7.46,1-8.42,8.27-8.42,8.27C53,151.24,50,141.84,55.75,135.93Zm4.71-19.64c4.91,11.15,12.34,18.68,23,24.91a38,38,0,0,1-3-7.09c5.35,5.35,10.33,12.81,7.84,17.79-2.59,5.16-24.39,8.34-24-5l0,.09c-.26.9-2.12,8.15,6.62,10.77s18.13-1.73,20.5-4,2.16-8-2.58-13.77-13.73-14.07-13.73-14.07c.45,2.57,1.37,3.47,2.28,5.18A37,37,0,0,1,60.46,116.29Z"/><path d="M62.36,149.31c-2.61,6.93,8.16,19.27,30.46,9-.66,1.66-1.33,3.32-2.07,5-1.48,1-9.76,6-25.55-.27,5.46,7.18,18.87,8.32,20.93,8.46a35.94,35.94,0,0,1-2.84,3.39C65.54,173.72,54,160.15,62.36,149.31ZM34,144.1c1.53,2.49,2.46,4.68,5.92,8.1a37.4,37.4,0,0,0-.59,6.16,27.89,27.89,0,0,1-3.92-7.6,33.67,33.67,0,0,0,2,9.85l-3.44-4Zm13.55-3.66c-.9,14.44,12.71,32.29,32.6,37l-1.22,1a36.73,36.73,0,0,1-14.77-2.36c-2.12-1.27-10.3-6.93-17.82-22.71.6,9.48,2.64,14.23,3.71,16.13-2.07-1.15-4.28-2.44-6.64-3.91C40.77,154.62,43.19,146.35,47.57,140.44ZM90.4,129.17c6.56,8.65,12.41,17.91,11.92,31.13C105.34,153.31,105.9,140.06,90.4,129.17Zm.72-8c1.6,11.49,26.63,7.4,25.72,37.06C125.18,124.35,97.57,131.23,91.12,121.13ZM107,108a36.76,36.76,0,0,1,11.1,12.36s-6.07-5.92-19-11.1c1.24,0,2.45-.07,3.56-.16a49.44,49.44,0,0,1,8,4,30.78,30.78,0,0,0-5.75-4.32A6.7,6.7,0,0,0,107,108Zm-11.75-4.42c4.81,2.42,11.41,1.91,11.41,1.91s-7.73,5-18.34.38A19.84,19.84,0,0,0,95.26,103.59Zm-6.87-5a21,21,0,0,0,7.38,2.4,16.31,16.31,0,0,1-12.93.16,31.36,31.36,0,0,0,8.21-.47A11.55,11.55,0,0,1,88.39,98.62Zm29-.33a23.41,23.41,0,0,1-18.75,3.84A20,20,0,0,0,105,98.47C110.27,99.38,117.4,98.29,117.4,98.29Zm-22-2.69a24.31,24.31,0,0,0,9.2.83c-3.17,2.88-8.28,3.65-13,2.74A45.61,45.61,0,0,0,99,97.46,9.82,9.82,0,0,1,95.38,95.6Zm5.16-4.79a36.07,36.07,0,0,0,11.27.28c-3.25,3.11-9.13,4.17-14.39,3.61a47.56,47.56,0,0,0,6.7-2A10.2,10.2,0,0,1,100.54,90.81Zm25.29-1.27S117.44,98.94,106,96a19.68,19.68,0,0,0,6.49-3.74C118.89,92.86,125.83,89.54,125.83,89.54Zm-7.18-6.14c-3,4.11-9.68,6.54-15.43,6.67a51.54,51.54,0,0,0,7.41-3.64,11.23,11.23,0,0,1-4.5-1.68A38.52,38.52,0,0,0,118.65,83.4ZM56.28,79.55s-.54.91-.23,1.15.51,0,.36-.3A2.3,2.3,0,0,1,56.28,79.55Zm78.05,0s-7.72,11.19-19.88,10.63a21,21,0,0,0,5-5.16C126.86,84.11,134.33,79.52,134.33,79.52ZM63,78.33S60.55,81,58.11,81a12.82,12.82,0,0,1,3.22-2.62Zm-5.5-1.28a2.63,2.63,0,0,1-.12,1.43,7.7,7.7,0,0,1,4.57-.9c-3.76,2.12-5.72,4.55-6.47,7.49A8,8,0,0,1,57.52,77.05ZM98,73a14.18,14.18,0,0,1,2.2.19c-.29.57-1,1.83-1.36,2.42a10.36,10.36,0,0,0-3.37,1.86,4.75,4.75,0,0,1,2.79-2.88s-.39-.65-4.69-1A13.35,13.35,0,0,1,98,73Zm27.79-.48c-3,4.11-6.72,9.61-16.52,10.9a23.82,23.82,0,0,0,7.93-5.38,10.8,10.8,0,0,1-4.8-.3C117.16,77.41,123.36,74,125.75,72.54ZM78.64,68.35a19.53,19.53,0,0,1,6.53,4.15,21.52,21.52,0,0,0-5-.25l-.68-.8a8.86,8.86,0,0,1,2.43-.22,20.08,20.08,0,0,0-4.27-1.76A8,8,0,0,1,78.64,68.35Zm63.09-2.28s-8.41,15.63-20.5,16a30.24,30.24,0,0,0,6.44-8.7A31.52,31.52,0,0,0,141.73,66.07Zm-49-.4c3.68,0,5.17,1,8,2.63a21.5,21.5,0,0,0-8,2.71,18.2,18.2,0,0,1,3.12-3.28s-.45-1.2-4.82-2C91.64,65.68,92.21,65.67,92.74,65.67Zm36-2.26a28.33,28.33,0,0,1-14.85,12,36.72,36.72,0,0,0,7.19-6.3,19.76,19.76,0,0,1-5.74.38C118.79,68.69,125.89,65,128.73,63.41Zm-26.83-.57a13.82,13.82,0,0,1,3.89.47c-.37.54-1,1.78-1.38,2.33a4.55,4.55,0,0,0-2.32,1.25c0-.91,1.4-2,1.4-2s-.69-1.26-4-1.83A21.2,21.2,0,0,1,101.9,62.84Zm-12-5a21.78,21.78,0,0,1,11.23,2.65A33.59,33.59,0,0,0,90.53,62.7a6.74,6.74,0,0,1,3.09-2.4s-.62-1.46-6.54-2.36C88,57.9,89,57.87,89.87,57.88Zm-26.59-2.1c-1.46,2.26-.79,6.31-.1,7,0,0,2.49-3.66,3.86-3.43s-3.41,6-4.36,6.79a5.61,5.61,0,0,0-2.87-1.54,4.22,4.22,0,0,1,.07,2.07c-1.23,3-3.49,5.81-3.69,9.15C54,79.69,50.9,86.08,57.37,89.05a6.19,6.19,0,0,1,1.42-6.34,7.61,7.61,0,0,0,2.52-.85,20.33,20.33,0,0,1,2.38,2.83,24.51,24.51,0,0,1,2.24,7c-17.39,11.8-5.21,32.1,11.47,39.4-.91-1.71-1.83-2.61-2.28-5.18,0,0,9.07,8.38,13.73,14.07s5,11.5,2.58,13.77-11.62,6.66-20.5,4c-9.32-2.79-6.59-10.86-6.59-10.86C57.67,147.75,58,157.81,58,161c-12.37-14.66-7.38-22.51-2.21-25.06-12.93.42-14.2,10.13-15.68,13.92-3.84-3.94-5.09-8.06-6-12.19V66.46A70.73,70.73,0,0,1,63.28,55.78Zm9-.2c1.09,2.62-.86,6.63-.86,6.63l-.51.41a14,14,0,0,0,.78-5.18A5,5,0,0,0,72.33,55.58Zm59.05-1A28.86,28.86,0,0,1,117.7,66.64c4.17-3.41,5.33-5.85,5.33-5.85a7.35,7.35,0,0,1-4.31.07C122.17,60.05,128.55,56.17,131.38,54.55Zm13.93-1.29s-5.95,14.92-17.71,17.35a30.77,30.77,0,0,0,2.78-6.37A54.61,54.61,0,0,0,145.31,53.26Zm-62-2.79c-.69,2.48-2.09,5.25-3.41,6.32l.4-2c-1.9,2.62-7.24,5.85-7.24,5.85s.21-.92.34-2C74.61,58.25,78.38,55.45,83.34,50.47Zm49.15-4a25.83,25.83,0,0,1-12,11.76,27.54,27.54,0,0,0,5-5.68,5.56,5.56,0,0,1-3.78.33C124.89,52,129.92,48.18,132.49,46.49Zm16.17-6.8s-2.3,13.83-17.6,20.73c1.39-3.15,1.93-4.08,2.15-6.65C141.29,49.24,148.66,39.69,148.66,39.69Zm2.05-14.55c-1.44,4.76-3.94,15.43-17.14,24.71a27,27,0,0,0,2.34-8.55A79.53,79.53,0,0,0,150.71,25.14Zm.37-6.91c-8.68,17.4-26.68,29.4-32.46,32.64-7.09,24.71-19.4,45.4-36.17,47.19-3.53,2-7.23,10.8-4.08,15.57l1.1-3.23c12.92.6,23.09,9.91,33.36,18.2-2.47-6-7.77-12-16.82-17.49,6.49,1.53,12.46,4.81,19.08,10.87,5.91,8.32,12.78,19.92,11.77,34.13-.92.92-1.82,1.81-2.72,2.66.62-3.63,1.17-11.46-3.59-18.65,2.62,14.28-1.6,22.18-3.75,25.13-1,.79-2,1.53-2.91,2.24.43-1.67,1.3-5.74.54-8.65A31.12,31.12,0,0,1,111,169.52c-1.14.75-2.27,1.45-3.4,2.09a36.38,36.38,0,0,0,1.06-26c1.85,17.11-7.07,27.42-9.38,29.77a45.75,45.75,0,0,1-5.12,1.43c1.35-2.48,4.82-9.39,4.39-14.49a74.46,74.46,0,0,1-9.37,15.33c-1.92.22-3.88.35-5.91.39,0,0,18-15.72,12.91-31.29C91,130.7,79.3,129.69,72.24,119.13a6.91,6.91,0,0,0,.8,5.62c-14.28-8.6-16.33-21.83-8.17-28.27-1.09,2.34-1.24,7-.22,7.88a21.25,21.25,0,0,1,2.51-9.12,10.58,10.58,0,0,1,.08,3.66s1.71-.72,3.64-4.61a28.61,28.61,0,0,1,0,8.27c3.12-4.1,1.94-11-.15-16.61-.12,3.18-.5,6.25-2.08,8.13.2-3.87-1.35-8.39-3.74-12.87,0,0,2.64.3,4.39,4.74a6.53,6.53,0,0,0-.76-3.87c1.82.42,3.7,1.8,5.58,3.43-2.83-4.61-6-5.64-10.59-6.34a1.84,1.84,0,0,1,1-1C64,78,63,77.77,62.59,77.71l1.22-.51c-1.36-.69-3.1-.35-3.41-.74a5.47,5.47,0,0,0,1.74-1.18,3,3,0,0,1-1.53.17A6,6,0,0,1,62.54,72a5.54,5.54,0,0,1,.27,2.85,5.3,5.3,0,0,0,.68-3.38,4.24,4.24,0,0,1,1.64-.25,3.2,3.2,0,0,0-3.52.7c-1.46,1.24-1.26,3.44-1.93,3.54s-.62-.58-.62-.58c-.12.41-.39,1,.67,1.43-.42.29-.7.26-1.28,0,.07.7.39.72,1.14.72,0,0-1.62.62-1.72-.19-.52-4.24,2.32-4.8,3.42-8.94a4.87,4.87,0,0,1,.52,2.36,2.6,2.6,0,0,0,.36-1.44s6.31-5.88,7.08-10.05c.47-2.57-.71-2.59-1.34-2.77-1.27-.37-3,1.57-3,1.57,0-1.39,3.11-6.15,6.53-3.17a3.5,3.5,0,0,1,.38.39,7.49,7.49,0,0,1-.32,1.52,2.48,2.48,0,0,0-2.63-2c4.31,2.12.51,8.13-1.4,10.87a20,20,0,0,0-3.9,3.72c4.31-3.29,7.63-4.34,10.35-6.24,3.93-2.74,6.64-5.34,12.49-11a30,30,0,0,1-9,12.2,65.78,65.78,0,0,0,3.63-5.8A91.08,91.08,0,0,1,66.8,69.61c1.71-.23,3.56-.75,5.36-1.18a46.85,46.85,0,0,1-4.77,3.81,44.91,44.91,0,0,0,9.7-6.62s2-.59,4.39-1.59c-2,1.8-9.13,8.38-12.43,10.44,2.83-.54,4.44-2,6.43-3.43,1.78,1.14,3.39,2.15,4.1,3.39a7.43,7.43,0,0,0-2.82-.15c3.16,2.62,6,6.82,8.52,11.49.1-1.91-3.08-8.62-3.61-9.14l2.7,1.9a13.51,13.51,0,0,0-2.85-4.69c3.77-.51,10,5.82,11.73,6.82,0,0-3.16-.35-4.5.41a6.13,6.13,0,0,1,4,2.84,41.32,41.32,0,0,1-12,5.68s-5.85,9-9.2,14.35C75,102.51,86.23,90.73,86.16,90.58c12-3.07,26.77-32.25,26.59-43.32C119.67,44.28,141,28.72,151.08,18.23ZM157.15,6A213.71,213.71,0,0,1,110.9,45.42l-1,5.52c-4.17-.83-8.33-1.81-12.52-2.53a89.51,89.51,0,0,0-12.43-1.58c-5.1-4.29-8.31-6.24-13-7a40.78,40.78,0,0,1,4.3,6.5c-4.8-4.37-10.91-7.59-16.35-8.58,2,2.55,4.28,5.06,5.63,7.7C59.94,41.39,53,35.68,40.52,32.09a100.31,100.31,0,0,1,16.8,17.52,92.48,92.48,0,0,0-29.26,13V105.9l0,2.49h0v47.82a61.59,61.59,0,0,0,103.83,0V88l1.26-1.47-1.26.34V86a73.5,73.5,0,0,0,12.44-13.81l-2.39,1.33a63.1,63.1,0,0,0,7.81-16.32l-2.52,1.92c2.24-5.06,4.49-10.11,5.38-15l-2.83,2c2.26-4.95,4.34-9.95,5.24-15.31l-3.12,2.84c1.33-5.66,3.31-11.33,3.84-16.79l-2.15,2.71A87.28,87.28,0,0,0,157.15,6Z"/><path d="M143.91,156.33l-4-.1q-7-.16-14-.29l-4-.07q-7.89-.13-15.78-.21l-2.18,0-6.4,0v-7.85H75.73v7.71c-.46-.26-.91-.53-1.36-.8v.9q-6.54,0-13.06.08l-4,0q-9,.09-18,.25l-5.83.11-8.16.18,0-8.46H3.52q0,4.47,0,9l-1.35-.89v15.42l1.35.88q0,13.86,0,27.72,6-1.12,12-2.08c1.94-.3,3.87-.6,5.81-.87q8.94-1.29,17.93-2.2l4-.38q9-.81,18-1.26l.91,0q6.09-.28,12.17-.39l1.38,0q6.09-.09,12.17,0c2.09,0,4.17.07,6.26.13,3.33.09,6.66.23,10,.4l2.18.12q7.92.45,15.81,1.2l4,.39q9,.94,17.92,2.25l.91.14q6,.9,12.05,2,0-15.28,0-30.58l4.9.37V156.85Q152.89,156.57,143.91,156.33Z"/><path class="cls-10" d="M12.24,151l-5.34.06v6.56c0,1.77,0,3.54,0,5.3l-1.35-.85v.58c0,2,0,4,0,6v.64l.34.22,1,.65c.46.3.93.58,1.4.87l-1.4.11q0,12.39,0,24.77c1.77-.29,3.54-.58,5.31-.85l0-21.56c3.25,2,6.5,4,9.75,5.88l0-6v-5l0-11.21v-6.26l-5.34.05Zm4.42,18.19-.71-.44-3.73-2.36v-8.94l4.45-.14q0,5.7,0,11.4Z"/><path class="cls-10" d="M34.55,181.16v6.12l-4.45.43.06-19.78,0-8.73-5.34.16,0,8.86v9.31l0,10.76,0,5c1.78-.23,3.56-.44,5.34-.65l4.45-.49,5.34-.53v-8.52l-5.34-2.33Z"/><path class="cls-10" d="M48.11,158.76l-5.34.11,0,4.76v9l0,18.7c1.78-.15,3.56-.3,5.35-.43l0-15.79,4.45,2.06,1.55.71.09,0-1.64.07,0,12.6c1.78-.12,3.57-.22,5.36-.32l0-10.67v-5.05l0-7.68V158.6l-5.34.08Zm4.42,13.29L48.08,170v-6.49l4.46-.11V167Z"/><path class="cls-10" d="M70.52,166.66v2.72l-2.26,1.16-2.2-1.09V158.51l-5.34.05,0,8.26V172l.28.15,2.25,1,4,1.89-1.64,0q0,6.23,0,12.44v2.43c1.78-.07,3.57-.12,5.36-.17v-2.41l0-13.2,2.39-1.2,2.54-1.26V158.45l-5.35,0Z"/><path class="cls-10" d="M84.46,150.64H79.12V161c-.45-.27-.9-.54-1.36-.8v6.22l.34.21,1,.63,1.41.85H79.11v21.56c1.78,0,3.57,0,5.36,0V170.49l5.45,3.4v-6.23l-1.68-1-3.77-2.34v-7.92h4.46v6.38l5.35,0V150.65h-9.8Z"/><path class="cls-10" d="M102.87,166.81l0-8.25-5.35-.06c0,2.74,0,5.48,0,8.21v.07l-.15-.07-1.22-.6v5l1.36.71v0l1.65.85-1.6,0c0,2,0,4,0,6v6.41c0,1.6,0,3.2,0,4.8l5.36.22c0-1.61,0-3.22,0-4.83q0-5.35,0-10.71l1.41.74c0-1.68,0-3.36,0-5l-1.41-.73Z"/><path class="cls-10" d="M112.79,158.7l-5.34-.08V167l-.23-.11-1.14-.57v.54c0,1.35,0,2.71,0,4.06v.45l1.37.73,1.41.74-1.41-.05,0,12.89c0,1.55,0,3.1,0,4.65,1.78.1,3.57.22,5.35.34l4.47.32,5.34.45V183q-2.67-1.56-5.36-3.06v.42c0,1.25,0,2.51,0,3.77v2.19l-4.46-.29,0-11q2.73,1.5,5.45,3v-5.15c-1.82-1-3.63-2-5.45-3,0-.94,0-1.89,0-2.83,0-1.22,0-2.45,0-3.67l4.46.12c0,1.23,0,2.47,0,3.7v1.56l5.35.22v-1.58c0-1.24,0-2.49,0-3.74V158.9l-5.34-.11Z"/><path class="cls-10" d="M130.75,159.11,125.4,159c0,1.6,0,3.2,0,4.8v9.09q4.91,2.82,9.81,5.81l1.55,1,.09.06-1.64-.14,0,8.32-4.45-.45,0-8.14q-2.67-.21-5.34-.39l0,8c0,1.6,0,3.2,0,4.8,1.78.17,3.56.35,5.34.55,1.48.16,3,.32,4.45.5,1.78.21,3.55.43,5.33.66,0-1.66,0-3.32,0-5,0-2.15,0-4.31,0-6.47v-.44c0-1.5,0-3,0-4.5v-.48q-4.91-3-9.8-5.89v-2.89c0-1.27,0-2.53,0-3.8l4.45.18v5.56l5.33.32V159.4l-5.34-.16Z"/><path class="cls-10" d="M153.55,159.88l-5.34-.2-4.86-.18c0,1.68,0,3.35,0,5l4.86.25c0,1.33,0,2.66,0,4q0,12.87.05,25.72,2.66.39,5.31.82l0-26.17v-4.07l4.91.3c0-1.76,0-3.52,0-5.28Z"/><path class="cls-11" d="M7.46,195.2q0-11.77,0-23.55l2.66-.22-2.45-1.51c2.69-.2,5.38-.4,8.07-.58l1.49.93v-1L21.4,169l0,9.33q-4.89-2.88-9.76-5.91l0,22.15Z"/><path class="cls-12" d="M25.33,192.63l.06-23.89,4.15-.24q0,9.92-.05,19.82c1.88-.2,3.75-.38,5.63-.56l0-6.15,4.15,1.82,0,7.69Q32.29,191.77,25.33,192.63Z"/><path class="cls-13" d="M53.08,190l0-11.55,3.56-.15-2.33-.92-6.86-3.17,0,16.18-4.16.33.07-22.9,4.16-.15v2.57l5.64,2.65v-5.41l4.16-.11,0,22.39Q55.17,189.91,53.08,190Z"/><path class="cls-14" d="M66.15,189.4l0-13.83,3.27-.07-5.91-2.8-2.23-1v-4.35l4.17-.08v2.51l2.8,1.38,2.85-1.47v-2.5l4.17,0v4.29L73,172.53q-1.35.66-2.7,1.35l0,15.4Z"/><path class="cls-15" d="M79.7,189.14q0-10.27,0-20.55h2.68l-2.47-1.49c2.71,0,5.41,0,8.11,0l1.29.8v5c-1.82-1.14-3.63-2.27-5.45-3.39v19.64Z"/><path class="cls-16" d="M98.15,189.41l0-4.28c0-4,0-8,0-11.94l3.23.08c-1.1-.57-2.2-1.14-3.31-1.7l-.27-.18-1.07-.56v-3.62h.47l.89.43v-.42l4.16.08v2.53l1.41.72c0,1.29,0,2.57,0,3.86l-1.41-.73,0,15.89Z"/><path class="cls-17" d="M108.11,189.87q0-8.25,0-16.52l3.07.11-3.37-1.78-1.06-.57c0-1.23,0-2.47,0-3.7h.39l1,.49v-.46l4.16.11v2.61q2.72,1.47,5.45,3v3.93c-1.82-1-3.63-2-5.45-3l0,12.42c1.88.12,3.77.24,5.65.38,0-2,0-4,0-6,1.39.78,2.78,1.58,4.17,2.38,0,2.55,0,5.1,0,7.65Q115.1,190.27,108.11,189.87Z"/><path class="cls-18" d="M126.09,191.25l0-11.79c1.38.09,2.77.19,4.15.3l0,8.13,5.63.57,0-8.33,3.54.32c-.78-.44-1.55-.87-2.33-1.29-.5-.32-1-.63-1.52-.93q-4.74-2.91-9.5-5.64l0-4.5,4.16.19v2.66q4.91,2.84,9.8,5.88,0,8,0,16Q133.07,191.92,126.09,191.25Z"/><path class="cls-19" d="M148.87,194q0-12.31-.05-24.63l4.15.29,0,25C151.63,194.42,150.25,194.21,148.87,194Z"/></g></g></svg>