<svg xmlns="http://www.w3.org/2000/svg" xmlns:xlink="http://www.w3.org/1999/xlink" viewBox="0 0 164 56.85"><defs><style>.cls-1{fill:url(#linear-gradient);}.cls-2{fill:#fff;}.cls-3{fill:url(#linear-gradient-2);}.cls-4{fill:url(#linear-gradient-3);}.cls-5{fill:url(#linear-gradient-4);}.cls-6{fill:url(#linear-gradient-5);}.cls-7{fill:url(#linear-gradient-6);}.cls-8{fill:url(#linear-gradient-7);}.cls-9{fill:url(#linear-gradient-8);}.cls-10{fill:url(#linear-gradient-9);}.cls-11{fill:url(#linear-gradient-10);}</style><linearGradient id="linear-gradient" y1="28.42" x2="164" y2="28.42" gradientUnits="userSpaceOnUse"><stop offset="0" stop-color="#f28a00"/><stop offset="1" stop-color="#ff3600"/></linearGradient><linearGradient id="linear-gradient-2" x1="14.43" y1="23.4" x2="14.43" y2="49.62" xlink:href="#linear-gradient"/><linearGradient id="linear-gradient-3" x1="32.31" y1="22.92" x2="32.31" y2="47.05" xlink:href="#linear-gradient"/><linearGradient id="linear-gradient-4" x1="50.29" y1="21.83" x2="50.29" y2="45.18" xlink:href="#linear-gradient"/><linearGradient id="linear-gradient-5" x1="68.29" y1="21.54" x2="68.29" y2="43.82" xlink:href="#linear-gradient"/><linearGradient id="linear-gradient-6" x1="84.51" y1="21.52" x2="84.51" y2="43.56" xlink:href="#linear-gradient"/><linearGradient id="linear-gradient-7" x1="100.22" y1="21.63" x2="100.22" y2="44" xlink:href="#linear-gradient"/><linearGradient id="linear-gradient-8" x1="114.39" y1="21.83" x2="114.39" y2="45.3" xlink:href="#linear-gradient"/><linearGradient id="linear-gradient-9" x1="133.03" y1="22.51" x2="133.03" y2="47.22" xlink:href="#linear-gradient"/><linearGradient id="linear-gradient-10" x1="150.91" y1="23.8" x2="150.91" y2="49.06" xlink:href="#linear-gradient"/></defs><g id="Layer_2" data-name="Layer 2"><g id="Layer_1-2" data-name="Layer 1"><path class="cls-1" d="M1.35,27.7,0,26.83V6.21l1.36.9V0H27.59l0,8.41,5.94-.13,5.84-.11q9-.15,18-.24l4,0q4.92,0,9.85-.06h1.07V5.3l1.36.8V0H99.8V7.87l6.45,0q7.89.07,15.78.21l4,.07q7,.12,14,.29l4,.1q9,.23,17.94.53l2.09.06V25.72l-4.9-.37,0,30.83-2.54-.45c-4-.71-8-1.38-12-2l-.9-.13c-5.91-.87-11.91-1.62-17.83-2.24-1.31-.14-2.63-.27-3.94-.39-5.2-.49-10.49-.89-15.73-1.19L104,49.69c-3.31-.17-6.66-.31-10-.4-2.07-.06-4.14-.11-6.22-.13s-3.9,0-5.86,0-4.16,0-6.25,0l-1.37,0c-4,.07-8.06.21-12.11.4l-.91,0c-6,.29-12,.71-17.9,1.25l-3.95.38c-6,.6-12,1.34-17.83,2.18q-2.89.42-5.78.87c-4,.63-8,1.33-12,2.07l-2.55.48Z"/><path d="M143.91,10.75l-4-.1q-7-.17-14-.29l-4-.07q-7.89-.13-15.78-.21l-2.18,0L97.65,10V2.16H75.73V9.87c-.46-.26-.91-.53-1.36-.8V10q-6.54,0-13.06.08l-4,0q-9,.09-18,.25l-5.83.11-8.16.18,0-8.46H3.52q0,4.47,0,9l-1.35-.89V25.65l1.35.88q0,13.86,0,27.72,6-1.12,12-2.08c1.94-.3,3.87-.6,5.81-.87Q30.29,50,39.28,49.1l4-.38q9-.81,18-1.26l.91,0q6.09-.29,12.17-.39l1.38,0q6.09-.09,12.17,0c2.09,0,4.17.07,6.26.13,3.33.09,6.66.23,10,.4l2.18.12q7.92.45,15.81,1.2c1.32.12,2.64.26,4,.39q9,.94,17.92,2.25l.91.14q6,.9,12.05,2,0-15.29,0-30.58l4.9.37V11.27Q152.89,11,143.91,10.75Z"/><path class="cls-2" d="M12.24,5.43,6.9,5.49v6.56c0,1.77,0,3.54,0,5.3L5.54,16.5v.58c0,2,0,4,0,6v.64l.34.22,1,.65c.46.3.93.58,1.4.87l-1.4.11q0,12.39,0,24.77c1.77-.29,3.54-.58,5.31-.85l0-21.56c3.25,2,6.5,4,9.75,5.88l0-6v-5l0-11.21V5.33l-5.34,0Zm4.42,18.19L16,23.18l-3.73-2.36V11.88l4.45-.14q0,5.7,0,11.4Z"/><path class="cls-2" d="M34.55,35.58V41.7l-4.45.43.06-19.78,0-8.73-5.34.16,0,8.86V32l0,10.76,0,5c1.78-.23,3.56-.44,5.34-.65l4.45-.49L39.86,46V37.49l-5.34-2.33Z"/><path class="cls-2" d="M48.11,13.18l-5.34.11,0,4.76v9l0,18.7c1.78-.15,3.56-.3,5.35-.43l0-15.79,4.45,2.06,1.55.71.09,0-1.64.07,0,12.6c1.78-.12,3.57-.22,5.36-.32l0-10.67V29l0-7.68V13l-5.34.08Zm4.42,13.29-4.45-2.09V17.89l4.46-.11v3.66Z"/><path class="cls-2" d="M70.52,21.08V23.8L68.26,25l-2.2-1.09V12.93L60.73,13l0,8.26v5.14l.28.15,2.25,1c1.33.63,2.66,1.25,4,1.89l-1.64,0q0,6.23,0,12.44v2.43c1.78-.07,3.57-.12,5.36-.17V41.78l0-13.2,2.39-1.2,2.54-1.26V12.87l-5.35,0Z"/><path class="cls-2" d="M84.46,5.06H79.12V15.39c-.45-.27-.9-.54-1.36-.8v6.22l.34.21,1,.63,1.41.85H79.11V44.07h5.36V24.91l5.45,3.4V22.08l-1.68-1-3.77-2.34V10.77h4.46v6.38l5.35,0V5.07h-9.8Z"/><path class="cls-2" d="M102.87,21.23l0-8.25-5.35-.06c0,2.74,0,5.48,0,8.21v.07l-.15-.07-1.22-.6v5l1.36.71v0l1.65.85-1.6,0c0,2,0,4,0,6v6.41c0,1.6,0,3.2,0,4.8l5.36.22c0-1.61,0-3.22,0-4.83q0-5.35,0-10.71l1.41.74c0-1.68,0-3.36,0-5L102.87,24Z"/><path class="cls-2" d="M112.79,13.12,107.45,13v8.4l-.23-.11-1.14-.57v.54c0,1.35,0,2.71,0,4.06v.45l1.37.73,1.41.74-1.41-.05,0,12.89c0,1.55,0,3.1,0,4.65,1.78.1,3.57.22,5.35.34l4.47.32q2.67.21,5.34.45V37.39q-2.67-1.56-5.36-3.06v.42c0,1.25,0,2.51,0,3.77v2.19l-4.46-.29,0-11q2.73,1.5,5.45,3V27.29c-1.82-1-3.63-2-5.45-3,0-.94,0-1.89,0-2.83,0-1.22,0-2.45,0-3.67l4.46.12c0,1.23,0,2.47,0,3.7v1.56l5.35.22V21.83c0-1.24,0-2.49,0-3.74V13.32l-5.34-.11Z"/><path class="cls-2" d="M130.75,13.53l-5.35-.14c0,1.6,0,3.2,0,4.8v9.09q4.91,2.82,9.81,5.81l1.55.95.09.06L135.25,34l0,8.32-4.45-.45,0-8.14-5.34-.39,0,8c0,1.6,0,3.2,0,4.8,1.78.17,3.56.35,5.34.55,1.48.16,3,.32,4.45.5,1.78.21,3.55.43,5.33.66,0-1.66,0-3.32,0-5,0-2.15,0-4.31,0-6.47V36c0-1.5,0-3,0-4.5V31q-4.91-3-9.8-5.89V22.19c0-1.27,0-2.53,0-3.8l4.45.18v5.56l5.33.32V13.82l-5.34-.16Z"/><path class="cls-2" d="M153.55,14.3l-5.34-.2-4.86-.18c0,1.68,0,3.35,0,5l4.86.25c0,1.33,0,2.66,0,4q0,12.87.05,25.72,2.66.39,5.31.82l0-26.17V19.49l4.91.3c0-1.76,0-3.52,0-5.28Z"/><path class="cls-3" d="M7.46,49.62q0-11.77,0-23.55l2.66-.22L7.69,24.34c2.69-.2,5.38-.4,8.07-.58l1.49.93v-1l4.15-.26,0,9.33q-4.89-2.88-9.76-5.91l0,22.15Z"/><path class="cls-4" d="M25.33,47.05l.06-23.89,4.15-.24q0,9.91-.05,19.82c1.88-.2,3.75-.38,5.63-.56l0-6.15,4.15,1.82,0,7.69Q32.29,46.19,25.33,47.05Z"/><path class="cls-5" d="M53.08,44.46l0-11.55,3.56-.15-2.33-.92-6.86-3.17,0,16.18-4.16.33.07-22.9,4.16-.15V24.7l5.64,2.65V21.94l4.16-.11,0,22.39Q55.17,44.33,53.08,44.46Z"/><path class="cls-6" d="M66.15,43.82l0-13.83,3.27-.07-5.91-2.8-2.23-1V21.74l4.17-.08v2.51l2.8,1.38,2.85-1.47v-2.5l4.17,0v4.29c-.75.37-1.5.74-2.24,1.12q-1.35.66-2.7,1.35l0,15.4C68.93,43.73,67.54,43.78,66.15,43.82Z"/><path class="cls-7" d="M79.7,43.56q0-10.28,0-20.55h2.68l-2.47-1.49c2.71,0,5.41,0,8.11,0l1.29.8v5c-1.82-1.14-3.63-2.27-5.45-3.39V43.56Q81.79,43.54,79.7,43.56Z"/><path class="cls-8" d="M98.15,43.83l0-4.28c0-4,0-8,0-11.94l3.23.08c-1.1-.57-2.2-1.14-3.31-1.7l-.27-.18-1.07-.56V21.63h.47l.89.43v-.42l4.16.08v2.53l1.41.72c0,1.29,0,2.57,0,3.86l-1.41-.73,0,15.89Z"/><path class="cls-9" d="M108.11,44.29q0-8.25,0-16.52l3.07.11-3.37-1.78-1.06-.57c0-1.23,0-2.47,0-3.7h.39l1,.49v-.46l4.16.11v2.61q2.72,1.47,5.45,3V31.5c-1.82-1-3.63-2-5.45-3l0,12.42c1.88.12,3.77.24,5.65.38,0-2,0-4,0-6,1.39.78,2.78,1.58,4.17,2.38,0,2.55,0,5.1,0,7.65Q115.1,44.69,108.11,44.29Z"/><path class="cls-10" d="M126.09,45.67l0-11.79c1.38.09,2.77.19,4.15.3l0,8.13,5.63.57,0-8.33,3.54.32c-.78-.44-1.55-.87-2.33-1.29-.5-.32-1-.63-1.52-.93Q130.8,29.74,126,27l0-4.5,4.16.19v2.66q4.91,2.84,9.8,5.88,0,8,0,16Q133.07,46.34,126.09,45.67Z"/><path class="cls-11" d="M148.87,48.43q0-12.32-.05-24.63l4.15.29,0,25C151.63,48.84,150.25,48.63,148.87,48.43Z"/></g></g></svg>